<svg id="visual" viewBox="0 0 960 540" width="960" height="540" xmlns="http://www.w3.org/2000/svg" xmlns:xlink="http://www.w3.org/1999/xlink" version="1.1"><rect x="0" y="0" width="960" height="540" fill="#011e33"></rect><path d="M0 377L32 382.2C64 387.3 128 397.7 192 401.7C256 405.7 320 403.3 384 403.2C448 403 512 405 576 407.3C640 409.7 704 412.3 768 412C832 411.7 896 408.3 928 406.7L960 405L960 541L928 541C896 541 832 541 768 541C704 541 640 541 576 541C512 541 448 541 384 541C320 541 256 541 192 541C128 541 64 541 32 541L0 541Z" fill="#24a4c7"></path><path d="M0 390L32 394.3C64 398.7 128 407.3 192 415.8C256 424.3 320 432.7 384 428.8C448 425 512 409 576 403.2C640 397.3 704 401.7 768 409.8C832 418 896 430 928 436L960 442L960 541L928 541C896 541 832 541 768 541C704 541 640 541 576 541C512 541 448 541 384 541C320 541 256 541 192 541C128 541 64 541 32 541L0 541Z" fill="#008abe"></path><path d="M0 454L32 448.5C64 443 128 432 192 427C256 422 320 423 384 425.7C448 428.3 512 432.7 576 436.5C640 440.3 704 443.7 768 443.5C832 443.3 896 439.7 928 437.8L960 436L960 541L928 541C896 541 832 541 768 541C704 541 640 541 576 541C512 541 448 541 384 541C320 541 256 541 192 541C128 541 64 541 32 541L0 541Z" fill="#006eb0"></path><path d="M0 473L32 471.2C64 469.3 128 465.7 192 462.8C256 460 320 458 384 456.5C448 455 512 454 576 456.8C640 459.7 704 466.3 768 472.7C832 479 896 485 928 488L960 491L960 541L928 541C896 541 832 541 768 541C704 541 640 541 576 541C512 541 448 541 384 541C320 541 256 541 192 541C128 541 64 541 32 541L0 541Z" fill="#00529e"></path><path d="M0 518L32 512.7C64 507.3 128 496.7 192 493.5C256 490.3 320 494.7 384 500.5C448 506.3 512 513.7 576 512.8C640 512 704 503 768 499.8C832 496.7 896 499.3 928 500.7L960 502L960 541L928 541C896 541 832 541 768 541C704 541 640 541 576 541C512 541 448 541 384 541C320 541 256 541 192 541C128 541 64 541 32 541L0 541Z" fill="#1b3587"></path></svg>